<?xml version="1.0" encoding="UTF-8"?>
<svg width="95px" height="15px" viewBox="0 0 95 15" version="1.1" xmlns="http://www.w3.org/2000/svg" xmlns:xlink="http://www.w3.org/1999/xlink">
    <title>Group 5</title>
    <g id="Website" stroke="none" stroke-width="1" fill="none" fill-rule="evenodd">
        <g id="Page" transform="translate(-737, -1856)" fill="#FFFFFF" fill-rule="nonzero">
            <g id="Group-5" transform="translate(737.9136, 1856)">
                <path d="M5.21382247,10.2199311 C5.02830822,10.4066706 4.8087215,10.5577627 4.55513476,10.673208 C4.30162149,10.788458 4.0758728,10.8462947 3.87796216,10.8462947 C3.55626567,10.8462947 3.2841937,10.7171966 3.06152582,10.458805 C2.83885794,10.2006085 2.7275792,9.84628942 2.7275792,9.39568429 C2.7275792,8.83510788 2.93465914,8.40669259 3.34907568,8.1100146 C3.76345565,7.81314109 4.38506253,7.60991437 5.21382247,7.49997556 L5.21382247,10.2199311 L5.21382247,10.2199311 Z M8.92468318,10.7473369 C8.87520561,10.7692988 8.80724246,10.7939648 8.72061057,10.8214331 C8.63408907,10.8489342 8.55981734,10.8627822 8.49794269,10.8627822 C8.11448193,10.8627822 7.92273293,10.593377 7.92273293,10.0550229 L7.92273293,6.11534751 C7.92273293,5.5549991 7.77745415,5.07972763 7.48671344,4.68959838 C7.19608241,4.29946912 6.78166588,4.02742468 6.24364699,3.87369276 C5.70548116,3.71976562 5.12102861,3.64276941 4.49025242,3.64276941 C3.82224914,3.64276941 3.11723849,3.7170936 2.37496383,3.86535123 C1.63283578,4.01377159 0.952435419,4.21983337 0.334056314,4.48353628 L0.328041294,6.72193183 L0.61247343,6.72193183 C0.795786506,6.19791485 1.98148965,3.9394474 4.00779961,3.9394474 C4.34174623,3.9394474 4.62628876,4.09604657 4.8613168,4.40940762 C5.09638141,4.72257315 5.21382212,5.12635488 5.21382212,5.62094865 L5.21382212,7.21978418 C3.81605095,7.42851769 2.74602786,7.67853532 2.00389981,7.96973933 C1.26173519,8.26110606 0.742274661,8.57691113 0.445335406,8.91757745 C0.148506192,9.25824377 0,9.63739195 0,10.055022 C0,10.4616388 0.129947489,10.8242997 0.389659295,11.1429721 C0.649444579,11.4616116 0.955553144,11.6841934 1.30816851,11.8106197 C1.66067383,11.936883 1.9853411,11.9999985 2.28224344,11.9999985 C2.72757885,11.9999985 3.18828245,11.8902555 3.66457364,11.6703454 C4.14071822,11.4506308 4.65724454,11.0769891 5.21382212,10.5496158 C5.27573334,11.0000254 5.44888673,11.3545075 5.73331921,11.612704 C6.01786174,11.8709004 6.4013225,11.9999985 6.88366527,11.9999985 C7.32900067,11.9999985 7.74341721,11.8957295 8.12684175,11.6868329 C8.51030251,11.4781319 8.81960193,11.2254098 9.05466688,10.9287318 L8.92468248,10.7473363 L8.92468318,10.7473369 Z M13.0957903,11.8187664 L11.980911,11.5936103 C10.9963828,11.3947822 10.3002113,10.6043903 10.3383557,9.70806774 C10.358308,9.23875937 10.3683211,8.68034054 10.3683211,8.21611542 L10.3677083,8.13250253 C10.3652574,7.46490218 10.3554577,6.12275789 10.3383557,5.72049357 C10.3002113,4.82417104 10.9963828,4.03377913 11.980911,3.83495103 L13.0957903,3.60979495 L13.0957903,11.8187664 Z M10.6743931,0.379148801 C10.3590421,0.63183815 10.2013297,0.923009362 10.2013297,1.25269523 C10.2013297,1.5823483 10.3528453,1.87351951 10.6558344,2.12640438 C10.9589722,2.37912653 11.3145587,2.50535735 11.7227767,2.50535735 C12.1433552,2.50535735 12.5144192,2.37912653 12.8360057,2.12640438 C13.1576656,1.8735192 13.3184588,1.58234799 13.3184588,1.25269492 C13.3184588,0.923009362 13.166945,0.631837841 12.8638441,0.379148491 C12.5608529,0.126263311 12.1989216,0 11.7784531,0 C11.3578746,0 10.9898914,0.126263311 10.6743934,0.379148491 L10.6743931,0.379148801 Z M17.3069775,3.60979526 L16.1220081,3.81999517 C15.1414466,4.02885923 14.4689995,4.82355231 14.5041731,5.71879977 C14.5212337,6.1535364 14.5297738,6.60990911 14.5297738,7.08785229 L14.5297738,11.818767 C16.0463633,11.818767 17.275802,10.5893283 17.275802,9.07273877 L17.275802,6.72519165 L17.275802,6.72519165 C17.8650591,5.52283921 19.9935885,5.18846144 20.8011488,5.81867014 L20.8011488,3.80771135 C20.5535771,3.69777254 20.2382261,3.64277065 19.854765,3.64277065 C19.3723118,3.64277065 18.9301672,3.8323449 18.5281478,4.21149308 C18.126128,4.59064126 17.7087772,5.28031574 17.275802,6.28028852 L17.3069775,3.60979526 Z M25.3550351,4.77206919 C25.6457758,4.21699955 26.038516,3.93944833 26.5332558,3.93944833 C26.8919597,3.93944833 27.1981414,4.09604749 27.451655,4.40940855 C27.7052417,4.72257408 27.8722335,5.09338073 27.9526668,5.52199185 C28.0330267,5.95063545 28.0608648,6.61590469 28.0361075,6.95657101 C27.6902406,6.99655146 25.3643141,6.96709545 24.8448536,6.95611469 C24.8942211,6.05487164 25.0642937,5.3269433 25.3550344,4.77206919 L25.3550351,4.77206919 Z M24.8448533,7.23627296 L30.6522972,7.23627296 C30.8132005,6.10436737 30.5564964,5.22247941 29.8822946,4.59064157 C29.2082397,3.95880373 28.2525765,3.64277065 27.0157086,3.64277065 C26.2858307,3.64277065 25.6055773,3.75538117 24.9746914,3.98079805 C24.3438055,4.20598661 23.8026689,4.52201938 23.351135,4.92863618 C22.8996376,5.33508993 22.5502131,5.81052413 22.3027883,6.35441749 C22.0554844,6.89827836 21.931717,7.47247508 21.931717,8.07703983 C21.931717,8.67039581 22.049297,9.21425668 22.2843397,9.70885044 C22.5192577,10.2034442 22.8471527,10.620879 23.2677312,10.9615454 C23.6881997,11.3021795 24.1830496,11.5605712 24.7520242,11.7362971 C25.3209989,11.912251 25.9271275,12 26.5703736,12 C28.2032097,12 29.5390696,11.4121508 30.5781735,10.2364521 L30.4110717,10.0715117 C30.1637566,10.2912263 29.8204206,10.4642805 29.3813938,10.590739 C28.9422566,10.7171979 28.5123987,10.7803133 28.0918202,10.7803133 C27.6218376,10.7803133 27.1827004,10.7006778 26.7744824,10.5412439 C26.366264,10.382038 26.0137587,10.1484751 25.7168191,9.84081636 C25.4200265,9.53312482 25.1942778,9.15664835 25.0396831,8.71151752 C24.8849418,8.26661438 24.8200964,7.77466016 24.8448536,7.23627358 L24.8448533,7.23627296 Z M38.2032822,7.59893329 C37.8693356,7.39023227 37.3620886,7.15383464 36.6818411,6.89013173 C36.0013248,6.62642882 35.5221053,6.40651904 35.2438289,6.2307931 C34.9653752,6.05487164 34.776744,5.87363893 34.6779354,5.68673671 C34.5789434,5.49999722 34.5294289,5.31856929 34.5294289,5.14284335 C34.5294289,4.82420384 34.6346195,4.54665262 34.8448168,4.31045081 C35.0552039,4.07424901 35.3275266,3.94384757 35.6612166,3.95596898 C37.3972256,4.01898663 38.6373579,5.75239421 38.796794,6.18579499 L39.0739641,6.18579499 L38.9454103,3.97245652 C38.5867064,3.873694 38.1290105,3.79386304 37.5722859,3.73338716 C37.0157815,3.6731393 36.5209316,3.64277096 36.0879929,3.64277096 C34.950007,3.64277096 34.0316079,3.87920108 33.3327592,4.35157253 C32.633727,4.82420446 32.2844125,5.4560423 32.2844125,6.24731405 C32.2844125,6.65393085 32.3802134,7.00274318 32.5718154,7.2939147 C32.7636745,7.58528143 33.0295479,7.83513634 33.3696565,8.04406536 C33.7100218,8.25276638 34.2665262,8.49994926 35.03961,8.78584201 C35.8126939,9.07150675 36.3414766,9.33520966 36.6261595,9.57691825 C36.9105916,9.81882235 37.0528996,10.1044871 37.0528996,10.4341402 C37.0528996,10.78582 36.9167536,11.0853328 36.6447182,11.3325157 C36.3724261,11.579731 36.0631267,11.7107515 35.7168934,11.7033223 C33.5290627,11.6564012 32.4282984,9.75567415 32.2398872,9.28177133 L31.9504729,9.28177133 L31.9504729,11.4561391 C32.4822142,11.6430414 33.0636959,11.7802854 33.6944349,11.8682624 C34.3254308,11.9562069 34.8757367,12 35.3458294,12 C36.1746259,12 36.8858351,11.8764087 37.4796766,11.6291933 C38.0732985,11.3820105 38.5216416,11.0659777 38.8248529,10.6813552 C39.1278503,10.2967003 39.2793579,9.85730391 39.2793579,9.36271014 C39.2793579,8.96707442 39.1835571,8.62640779 38.991698,8.34071056 C38.800096,8.05504582 38.5371933,7.80763493 38.2032833,7.59893391 L38.2032822,7.59893329 Z M46.7856601,10.788458 C46.5197867,10.859915 46.2692808,10.8957576 46.0343628,10.8957576 C45.5271158,10.8957576 45.1221252,10.7473373 44.8189206,10.4506593 C44.5158862,10.1539813 44.3644089,9.70334336 44.3644089,9.0990063 L44.3644089,4.84619785 C46.0501335,4.84619785 46.9254368,5.2757213 47.5928903,5.53847908 L47.5372138,3.62628249 C46.8693206,3.90119448 46.2445232,4.11804151 45.6632618,4.27747542 C45.0817801,4.43671381 44.6488417,4.52752554 44.3644096,4.54951955 L44.3502522,1.79675162 L43.5294145,1.79277622 C43.2207754,3.38395455 41.7995675,4.43899418 40.4173473,4.61191784 L40.4173473,4.89566016 L41.6369401,4.89566016 L41.6369401,9.34622136 C41.6369401,10.2034433 41.8998062,10.8599147 42.4253615,11.3160266 C42.9511605,11.7721385 43.6532004,11.9999991 44.5314745,11.9999991 C45.6942176,11.9999991 46.7146162,11.5495895 47.5928903,10.6483464 L47.4443841,10.4671462 C47.2713407,10.6098646 47.0517537,10.7171966 46.7856598,10.788458 L46.7856601,10.788458 Z M53.9382925,10.2199311 C53.7527783,10.4066706 53.5331916,10.5577627 53.2796048,10.673208 C53.0260916,10.788458 52.8003429,10.8462947 52.6024322,10.8462947 C52.2807357,10.8462947 52.0086638,10.7171966 51.7859959,10.458805 C51.563328,10.2006085 51.4520493,9.84628942 51.4520493,9.39568429 C51.4520493,8.83510788 51.6591292,8.40669259 52.0735458,8.1100146 C52.4879257,7.81314109 53.1095326,7.60991437 53.9382925,7.49997556 L53.9382925,10.2199311 L53.9382925,10.2199311 Z M57.6491532,10.7473369 C57.5996757,10.7692988 57.5317125,10.7939648 57.4450806,10.8214331 C57.3585591,10.8489342 57.2842874,10.8627822 57.2224128,10.8627822 C56.838952,10.8627822 56.647203,10.593377 56.647203,10.0550229 L56.647203,6.11534751 C56.647203,5.5549991 56.5019242,5.07972763 56.2111835,4.68959838 C55.9205525,4.29946912 55.5061359,4.02742468 54.9681171,3.87369276 C54.4299512,3.71976562 53.8454987,3.64276941 53.2147225,3.64276941 C52.5467192,3.64276941 51.8417086,3.7170936 51.0994339,3.86535123 C50.3573059,4.01377159 49.6769055,4.21983337 49.0585264,4.48353628 L49.0525114,6.72193183 L49.3369435,6.72193183 C49.5202566,6.19791485 50.7059597,3.9394474 52.7322697,3.9394474 C53.0662163,3.9394474 53.3507588,4.09604657 53.5857869,4.40940762 C53.8208515,4.72257315 53.9382922,5.12635488 53.9382922,5.62094865 L53.9382922,7.21978418 C52.540521,7.42851769 51.4704979,7.67853532 50.7283699,7.96973933 C49.9862053,8.26110606 49.4667447,8.57691113 49.1698055,8.91757745 C48.8729763,9.25824377 48.7244701,9.63739195 48.7244701,10.055022 C48.7244701,10.4616388 48.8544176,10.8242997 49.1141294,11.1429721 C49.3739147,11.4616116 49.6800232,11.6841934 50.0326386,11.8106197 C50.3851439,11.936883 50.7098112,11.9999985 51.0067135,11.9999985 C51.4520489,11.9999985 51.9127525,11.8902555 52.3890437,11.6703454 C52.8651883,11.4506308 53.3817146,11.0769891 53.9382922,10.5496158 C54.0002034,11.0000254 54.1733568,11.3545075 54.4577893,11.612704 C54.7423318,11.8709004 55.1257926,11.9999985 55.6081353,11.9999985 C56.0534707,11.9999985 56.4678873,11.8957295 56.8513118,11.6868329 C57.2347726,11.4781319 57.544072,11.2254098 57.779137,10.9287318 L57.6491526,10.7473363 L57.6491532,10.7473369 Z M65.2941122,10.788458 C65.0282388,10.859915 64.7777329,10.8957576 64.5428149,10.8957576 C64.0355679,10.8957576 63.6305773,10.7473373 63.3273727,10.4506593 C63.0243383,10.1539813 62.872861,9.70334336 62.872861,9.0990063 L62.872861,4.84619785 C64.5585856,4.84619785 65.4338889,5.2757213 66.1013424,5.53847908 L66.0456659,3.62628249 C65.3777727,3.90119448 64.7529753,4.11804151 64.1717139,4.27747542 C63.5902322,4.43671381 63.1572938,4.52752554 62.8728617,4.54951955 L62.8587043,1.79675162 L62.0378666,1.79277622 C61.7292275,3.38395455 60.3080196,4.43899418 58.9257994,4.61191784 L58.9257994,4.89566016 L60.1453922,4.89566016 L60.1453922,9.34622136 C60.1453922,10.2034433 60.4082583,10.8599147 60.9338136,11.3160266 C61.4596126,11.7721385 62.1616525,11.9999991 63.0399266,11.9999991 C64.2026697,11.9999991 65.2230683,11.5495895 66.1013424,10.6483464 L65.9528362,10.4671462 C65.7797928,10.6098646 65.5602058,10.7171966 65.2941119,10.788458 L65.2941122,10.788458 Z M70.6562403,4.77206919 C70.946981,4.21699955 71.3397212,3.93944833 71.834461,3.93944833 C72.1931649,3.93944833 72.4993466,4.09604749 72.7528602,4.40940855 C73.0064469,4.72257408 73.1734387,5.09338073 73.253872,5.52199185 C73.3342319,5.95063545 73.36207,6.61590469 73.3373127,6.95657101 C72.9914458,6.99655146 70.6655193,6.96709545 70.1460588,6.95611469 C70.1954263,6.05487164 70.3654989,5.3269433 70.6562396,4.77206919 L70.6562403,4.77206919 Z M70.1460585,7.23627296 L75.9535024,7.23627296 C76.1144057,6.10436737 75.8577016,5.22247941 75.1834998,4.59064157 C74.5094449,3.95880373 73.5537817,3.64277065 72.3169138,3.64277065 C71.5870359,3.64277065 70.9067825,3.75538117 70.2758966,3.98079805 C69.6450107,4.20598661 69.1038741,4.52201938 68.6523402,4.92863618 C68.2008428,5.33508993 67.8514183,5.81052413 67.6039935,6.35441749 C67.3566896,6.89827836 67.2329222,7.47247508 67.2329222,8.07703983 C67.2329222,8.67039581 67.3505022,9.21425668 67.5855448,9.70885044 C67.8204628,10.2034442 68.1483579,10.620879 68.5689364,10.9615454 C68.9894049,11.3021795 69.4842548,11.5605712 70.0532294,11.7362971 C70.6222041,11.912251 71.2283327,12 71.8715788,12 C73.5044149,12 74.8402748,11.4121508 75.8793787,10.2364521 L75.7122769,10.0715117 C75.4649618,10.2912263 75.1216258,10.4642805 74.682599,10.590739 C74.2434618,10.7171979 73.8136039,10.7803133 73.3930254,10.7803133 C72.9230428,10.7803133 72.4839056,10.7006778 72.0756876,10.5412439 C71.6674692,10.382038 71.3149639,10.1484751 71.0180243,9.84081636 C70.7212317,9.53312482 70.495483,9.15664835 70.3408883,8.71151752 C70.186147,8.26661438 70.1213016,7.77466016 70.1460588,7.23627358 L70.1460585,7.23627296 Z" id="Combined-Shape"></path>
                <path d="M90.5534502,13.3866912 L90.994262,13.1771243 C91.5231975,12.9177869 92.1971355,12.5643632 93.000616,12.1211373 C93.2424095,11.9877562 93.5465486,12.0756418 93.6799297,12.3174352 C93.8133108,12.5592287 93.7254252,12.8633678 93.4836318,12.9967489 L92.9528215,13.287107 L92.1983381,13.6890332 C90.9464712,14.342478 90.166383,14.671552 89.7745929,14.6993884 C89.1107464,14.7465543 88.1560595,13.8229215 86.4967292,11.7538747 C86.3239647,11.5384517 86.3585462,11.2237637 86.5739691,11.0509992 C86.789392,10.8782347 87.1040801,10.9128162 87.2768446,11.1282391 L87.7592751,11.7180531 L88.0895884,12.1076453 C88.7262393,12.8466374 89.2151162,13.3428205 89.4856513,13.5664166 L89.4885794,13.5375425 L89.6308805,12.9381622 C91.5048268,4.6799862 88.4082738,2.01109277 79.9397512,4.55999409 C79.6753266,4.63958203 79.3964493,4.4897423 79.3168614,4.22531769 C79.2372735,3.96089309 79.3871132,3.68201582 79.6515378,3.60242789 C88.9302026,0.809685614 92.7018915,4.19853977 90.5534502,13.3866912 Z" id="Path"></path>
            </g>
        </g>
    </g>
</svg>