<?xml version="1.0" encoding="UTF-8"?>
<svg width="12px" height="12px" viewBox="0 0 12 12" version="1.1" xmlns="http://www.w3.org/2000/svg" xmlns:xlink="http://www.w3.org/1999/xlink">
    <title>􀉪</title>
    <g id="Website" stroke="none" stroke-width="1" fill="none" fill-rule="evenodd">
        <g id="Artboard" transform="translate(-325, -551)" fill="#5B5C63" fill-rule="nonzero">
            <g id="􀉪" transform="translate(325, 551)">
                <path d="M1.31847099,12 L10.6837418,12 C11.095757,12 11.4181372,11.9130555 11.6508823,11.7391664 C11.8836274,11.5652773 12,11.3256547 12,11.0202985 C12,10.5985572 11.8600616,10.153625 11.5801848,9.68550178 C11.3003079,9.21737858 10.8989139,8.77936746 10.3760027,8.37146842 C9.85309141,7.96356937 9.22275083,7.63209545 8.48498091,7.37704664 C7.747211,7.12199783 6.91807269,6.99447343 5.99756597,6.99447343 C5.08177979,6.99447343 4.25461452,7.12199783 3.51607014,7.37704664 C2.77752577,7.63209545 2.14602349,7.96356937 1.62156331,8.37146842 C1.09710313,8.77936746 0.695727536,9.21737858 0.417436522,9.68550178 C0.139145507,10.153625 0,10.5985572 0,11.0202985 C0,11.3256547 0.116741347,11.5652773 0.350224042,11.7391664 C0.583706736,11.9130555 0.906455717,12 1.31847099,12 Z M6.00243403,5.82779815 C6.52398075,5.82779815 7.00252623,5.6971403 7.43807048,5.4358246 C7.87361472,5.17450889 8.22238203,4.82137631 8.48437241,4.37642684 C8.74636278,3.93147737 8.87735797,3.43215743 8.87735797,2.87846702 C8.87735797,2.34047828 8.74599399,1.85348553 8.48326603,1.41748877 C8.22053807,0.981492003 7.87138353,0.636244684 7.4358024,0.381746811 C7.00022128,0.127248937 6.52243182,0 6.00243403,0 C5.48383766,0 5.00639855,0.128746793 4.57011672,0.38624038 C4.13383489,0.643733967 3.78433,0.991253895 3.52160204,1.42880017 C3.25887408,1.86634644 3.12824768,2.3532531 3.1297105,2.88952017 C3.1297105,3.43887196 3.26071804,3.93526505 3.52270841,4.37869945 C3.78469879,4.82213384 4.13309731,5.17450889 4.56790397,5.4358246 C5.00271063,5.6971403 5.48088732,5.82779815 6.00243403,5.82779815 Z" id="Shape"></path>
            </g>
        </g>
    </g>
</svg>