<?xml version="1.0" encoding="UTF-8"?>
<svg width="18px" height="12px" viewBox="0 0 18 12" version="1.1" xmlns="http://www.w3.org/2000/svg" xmlns:xlink="http://www.w3.org/1999/xlink">
    <title>􀉬</title>
    <g id="Website" stroke="none" stroke-width="1" fill="none" fill-rule="evenodd">
        <g id="Artboard" transform="translate(-321, -522)" fill="#5B5C63" fill-rule="nonzero">
            <g id="􀉬" transform="translate(321, 522)">
                <path d="M8.37511031,11.9978311 L16.5050814,11.9978311 C17.0611538,11.9978311 17.449325,11.9128646 17.669595,11.7429317 C17.889865,11.5729987 18,11.331457 18,11.0183067 C18,10.5966416 17.8703762,10.1517898 17.6111285,9.68375119 C17.3518808,9.2157126 16.9800898,8.77778065 16.4957555,8.36995533 C16.0114212,7.96213001 15.4272001,7.630716 14.7430924,7.37571329 C14.0589846,7.12071058 13.2913191,6.99320922 12.4400959,6.99320922 C11.5918105,6.99320922 10.8256139,7.12071058 10.1415062,7.37571329 C9.45739841,7.630716 8.87242583,7.96213001 8.3865884,8.36995533 C7.90075097,8.77778065 7.52895997,9.2157126 7.27121539,9.68375119 C7.01347081,10.1517898 6.88459852,10.5966416 6.88459852,11.0183067 C6.88459852,11.331457 6.99398197,11.5729987 7.21274888,11.7429317 C7.43151578,11.9128646 7.81896959,11.9978311 8.37511031,11.9978311 Z M12.4445026,5.82674482 C12.9276072,5.82674482 13.3705384,5.69611058 13.7732964,5.43484211 C14.1760543,5.17357364 14.4983802,4.82050488 14.7402741,4.37563583 C14.982168,3.93076678 15.1031149,3.43153709 15.1031149,2.87794676 C15.1031149,2.34005526 14.9818264,1.85315052 14.7392493,1.41723256 C14.4966722,0.981314605 14.1740046,0.636129687 13.7712467,0.381677812 C13.3684888,0.127225937 12.9262408,0 12.4445026,0 C11.9641993,0 11.5219854,0.128723523 11.1178611,0.38617057 C10.7137367,0.643617616 10.389976,0.991074733 10.1465791,1.42854192 C9.9031821,1.86600911 9.78148361,2.35282777 9.78148361,2.88899791 C9.78291837,3.43825041 9.904224,3.93455378 10.1454005,4.37790803 C10.386577,4.82126228 10.7085442,5.17357364 11.1113022,5.43484211 C11.5140601,5.69611058 11.9584603,5.82674482 12.4445026,5.82674482 Z M1.25193152,12 L6.12007584,12 C5.94264372,11.7432415 5.85104106,11.4372004 5.84526785,11.0818766 C5.83949465,10.7265529 5.90793616,10.3515023 6.05059241,9.95672493 C6.19324865,9.56194755 6.4004179,9.17544992 6.67210016,8.79723205 C6.94378242,8.41901418 7.26986603,8.07715149 7.650351,7.77164399 C7.29268557,7.54297813 6.87976474,7.35311179 6.41158854,7.20204498 C5.94341234,7.05097816 5.41916089,6.97544476 4.8388342,6.97544476 C4.11093208,6.97544476 3.45039541,7.09528605 2.85722419,7.33496863 C2.26405297,7.57465121 1.75452491,7.88971227 1.32863999,8.28015182 C0.902755083,8.67059137 0.574843856,9.09564753 0.344906314,9.5553203 C0.114968771,10.0149931 0,10.4663 0,10.9092411 C0,11.2533072 0.0937377234,11.5211168 0.28121317,11.7126701 C0.468688617,11.9042234 0.7922614,12 1.25193152,12 Z M4.8388342,5.97670996 C5.26229368,5.97670996 5.64916676,5.86258359 5.99945342,5.63433086 C6.34974009,5.40607813 6.63018464,5.09776481 6.84078707,4.7093909 C7.0513895,4.32101698 7.15669071,3.88749172 7.15669071,3.4088151 C7.15669071,2.93709279 7.05104789,2.51189892 6.83976224,2.13323349 C6.62847659,1.75456807 6.34659728,1.4545345 5.99412431,1.23313279 C5.64165134,1.01173109 5.25655464,0.901030236 4.8388342,0.901030236 C4.42411993,0.901030236 4.04052631,1.01324589 3.68805334,1.23767719 C3.33558037,1.4621085 3.05255666,1.76439705 2.83898223,2.14454285 C2.6254078,2.52468865 2.52012366,2.9491079 2.52312983,3.41780061 C2.52449627,3.89351649 2.63012201,4.32480398 2.84000706,4.71166309 C3.04989211,5.09852221 3.33072951,5.40607813 3.68251926,5.63433086 C4.03430901,5.86258359 4.41974732,5.97670996 4.8388342,5.97670996 Z" id="Shape"></path>
            </g>
        </g>
    </g>
</svg>