<?xml version="1.0" encoding="UTF-8"?>
<svg width="13px" height="12px" viewBox="0 0 13 12" version="1.1" xmlns="http://www.w3.org/2000/svg" xmlns:xlink="http://www.w3.org/1999/xlink">
    <title>􀉉</title>
    <g id="Website" stroke="none" stroke-width="1" fill="none" fill-rule="evenodd">
        <g id="Artboard" transform="translate(-324, -580)" fill="#5B5C63" fill-rule="nonzero">
            <g id="􀉉" transform="translate(324, 580)">
                <path d="M2.13932039,12 L10.8669903,12 C11.5653722,12 12.0954693,11.8185676 12.4572816,11.4557029 C12.8190939,11.0928382 13,10.5633952 13,9.86737401 L13,2.13262599 C13,1.43660477 12.8190939,0.907161804 12.4572816,0.544297082 C12.0954693,0.181432361 11.5653722,0 10.8669903,0 L2.13932039,0 C1.44093851,0 0.909789644,0.181432361 0.545873786,0.544297082 C0.181957929,0.907161804 0,1.43660477 0,2.13262599 L0,9.86737401 C0,10.5633952 0.181957929,11.0928382 0.545873786,11.4557029 C0.909789644,11.8185676 1.44093851,12 2.13932039,12 Z M2.17718447,10.5867374 C1.9289644,10.5867374 1.73754045,10.5220159 1.60291262,10.3925729 C1.46828479,10.26313 1.40097087,10.0647215 1.40097087,9.79734748 L1.40097087,4.00424403 C1.40097087,3.74111406 1.46828479,3.54482759 1.60291262,3.41538462 C1.73754045,3.28594164 1.9289644,3.22122016 2.17718447,3.22122016 L10.8165049,3.22122016 C11.068932,3.22122016 11.2624595,3.28594164 11.3970874,3.41538462 C11.5317152,3.54482759 11.5990291,3.74111406 11.5990291,4.00424403 L11.5990291,9.79734748 C11.5990291,10.0647215 11.5317152,10.26313 11.3970874,10.3925729 C11.2624595,10.5220159 11.068932,10.5867374 10.8165049,10.5867374 L2.17718447,10.5867374 Z M5.30097087,5.36657825 L5.66699029,5.36657825 C5.78058252,5.36657825 5.8605178,5.34429708 5.90679612,5.29973475 C5.95307443,5.25517241 5.97621359,5.17771883 5.97621359,5.06737401 L5.97621359,4.69177719 C5.97621359,4.57718833 5.95307443,4.49867374 5.90679612,4.45623342 C5.8605178,4.4137931 5.78058252,4.39257294 5.66699029,4.39257294 L5.30097087,4.39257294 C5.18737864,4.39257294 5.10744337,4.4137931 5.06116505,4.45623342 C5.01488673,4.49867374 4.99174757,4.57718833 4.99174757,4.69177719 L4.99174757,5.06737401 C4.99174757,5.17771883 5.01488673,5.25517241 5.06116505,5.29973475 C5.10744337,5.34429708 5.18737864,5.36657825 5.30097087,5.36657825 Z M7.33932039,5.36657825 L7.71165049,5.36657825 C7.82524272,5.36657825 7.90412621,5.34429708 7.94830097,5.29973475 C7.99247573,5.25517241 8.01456311,5.17771883 8.01456311,5.06737401 L8.01456311,4.69177719 C8.01456311,4.57718833 7.99247573,4.49867374 7.94830097,4.45623342 C7.90412621,4.4137931 7.82524272,4.39257294 7.71165049,4.39257294 L7.33932039,4.39257294 C7.22572816,4.39257294 7.14684466,4.4137931 7.1026699,4.45623342 C7.05849515,4.49867374 7.03640777,4.57718833 7.03640777,4.69177719 L7.03640777,5.06737401 C7.03640777,5.17771883 7.05849515,5.25517241 7.1026699,5.29973475 C7.14684466,5.34429708 7.22572816,5.36657825 7.33932039,5.36657825 Z M9.3776699,5.36657825 L9.74368932,5.36657825 C9.86148867,5.36657825 9.94247573,5.34429708 9.98665049,5.29973475 C10.0308252,5.25517241 10.0529126,5.17771883 10.0529126,5.06737401 L10.0529126,4.69177719 C10.0529126,4.57718833 10.0308252,4.49867374 9.98665049,4.45623342 C9.94247573,4.4137931 9.86148867,4.39257294 9.74368932,4.39257294 L9.3776699,4.39257294 C9.26407767,4.39257294 9.18414239,4.4137931 9.13786408,4.45623342 C9.09158576,4.49867374 9.0684466,4.57718833 9.0684466,4.69177719 L9.0684466,5.06737401 C9.0684466,5.17771883 9.09158576,5.25517241 9.13786408,5.29973475 C9.18414239,5.34429708 9.26407767,5.36657825 9.3776699,5.36657825 Z M3.26262136,7.39098143 L3.63495146,7.39098143 C3.74854369,7.39098143 3.8263754,7.36870027 3.8684466,7.32413793 C3.9105178,7.2795756 3.9315534,7.2 3.9315534,7.08541114 L3.9315534,6.71618037 C3.9315534,6.60159151 3.9105178,6.52307692 3.8684466,6.4806366 C3.8263754,6.43819629 3.74854369,6.41697613 3.63495146,6.41697613 L3.26262136,6.41697613 C3.14482201,6.41697613 3.06383495,6.43819629 3.01966019,6.4806366 C2.97548544,6.52307692 2.95339806,6.60159151 2.95339806,6.71618037 L2.95339806,7.08541114 C2.95339806,7.2 2.97548544,7.2795756 3.01966019,7.32413793 C3.06383495,7.36870027 3.14482201,7.39098143 3.26262136,7.39098143 Z M5.30097087,7.39098143 L5.66699029,7.39098143 C5.78058252,7.39098143 5.8605178,7.36870027 5.90679612,7.32413793 C5.95307443,7.2795756 5.97621359,7.2 5.97621359,7.08541114 L5.97621359,6.71618037 C5.97621359,6.60159151 5.95307443,6.52307692 5.90679612,6.4806366 C5.8605178,6.43819629 5.78058252,6.41697613 5.66699029,6.41697613 L5.30097087,6.41697613 C5.18737864,6.41697613 5.10744337,6.43819629 5.06116505,6.4806366 C5.01488673,6.52307692 4.99174757,6.60159151 4.99174757,6.71618037 L4.99174757,7.08541114 C4.99174757,7.2 5.01488673,7.2795756 5.06116505,7.32413793 C5.10744337,7.36870027 5.18737864,7.39098143 5.30097087,7.39098143 Z M7.33932039,7.39098143 L7.71165049,7.39098143 C7.82524272,7.39098143 7.90412621,7.36870027 7.94830097,7.32413793 C7.99247573,7.2795756 8.01456311,7.2 8.01456311,7.08541114 L8.01456311,6.71618037 C8.01456311,6.60159151 7.99247573,6.52307692 7.94830097,6.4806366 C7.90412621,6.43819629 7.82524272,6.41697613 7.71165049,6.41697613 L7.33932039,6.41697613 C7.22572816,6.41697613 7.14684466,6.43819629 7.1026699,6.4806366 C7.05849515,6.52307692 7.03640777,6.60159151 7.03640777,6.71618037 L7.03640777,7.08541114 C7.03640777,7.2 7.05849515,7.2795756 7.1026699,7.32413793 C7.14684466,7.36870027 7.22572816,7.39098143 7.33932039,7.39098143 Z M9.3776699,7.39098143 L9.74368932,7.39098143 C9.86148867,7.39098143 9.94247573,7.36870027 9.98665049,7.32413793 C10.0308252,7.2795756 10.0529126,7.2 10.0529126,7.08541114 L10.0529126,6.71618037 C10.0529126,6.60159151 10.0308252,6.52307692 9.98665049,6.4806366 C9.94247573,6.43819629 9.86148867,6.41697613 9.74368932,6.41697613 L9.3776699,6.41697613 C9.26407767,6.41697613 9.18414239,6.43819629 9.13786408,6.4806366 C9.09158576,6.52307692 9.0684466,6.60159151 9.0684466,6.71618037 L9.0684466,7.08541114 C9.0684466,7.2 9.09158576,7.2795756 9.13786408,7.32413793 C9.18414239,7.36870027 9.26407767,7.39098143 9.3776699,7.39098143 Z M3.26262136,9.41538462 L3.63495146,9.41538462 C3.74854369,9.41538462 3.8263754,9.39416446 3.8684466,9.35172414 C3.9105178,9.30928382 3.9315534,9.22864721 3.9315534,9.10981432 L3.9315534,8.74058355 C3.9315534,8.62599469 3.9105178,8.54748011 3.8684466,8.50503979 C3.8263754,8.46259947 3.74854369,8.44137931 3.63495146,8.44137931 L3.26262136,8.44137931 C3.14482201,8.44137931 3.06383495,8.46259947 3.01966019,8.50503979 C2.97548544,8.54748011 2.95339806,8.62599469 2.95339806,8.74058355 L2.95339806,9.10981432 C2.95339806,9.22864721 2.97548544,9.30928382 3.01966019,9.35172414 C3.06383495,9.39416446 3.14482201,9.41538462 3.26262136,9.41538462 Z M5.30097087,9.41538462 L5.66699029,9.41538462 C5.78058252,9.41538462 5.8605178,9.39416446 5.90679612,9.35172414 C5.95307443,9.30928382 5.97621359,9.22864721 5.97621359,9.10981432 L5.97621359,8.74058355 C5.97621359,8.62599469 5.95307443,8.54748011 5.90679612,8.50503979 C5.8605178,8.46259947 5.78058252,8.44137931 5.66699029,8.44137931 L5.30097087,8.44137931 C5.18737864,8.44137931 5.10744337,8.46259947 5.06116505,8.50503979 C5.01488673,8.54748011 4.99174757,8.62599469 4.99174757,8.74058355 L4.99174757,9.10981432 C4.99174757,9.22864721 5.01488673,9.30928382 5.06116505,9.35172414 C5.10744337,9.39416446 5.18737864,9.41538462 5.30097087,9.41538462 Z M7.33932039,9.41538462 L7.71165049,9.41538462 C7.82524272,9.41538462 7.90412621,9.39416446 7.94830097,9.35172414 C7.99247573,9.30928382 8.01456311,9.22864721 8.01456311,9.10981432 L8.01456311,8.74058355 C8.01456311,8.62599469 7.99247573,8.54748011 7.94830097,8.50503979 C7.90412621,8.46259947 7.82524272,8.44137931 7.71165049,8.44137931 L7.33932039,8.44137931 C7.22572816,8.44137931 7.14684466,8.46259947 7.1026699,8.50503979 C7.05849515,8.54748011 7.03640777,8.62599469 7.03640777,8.74058355 L7.03640777,9.10981432 C7.03640777,9.22864721 7.05849515,9.30928382 7.1026699,9.35172414 C7.14684466,9.39416446 7.22572816,9.41538462 7.33932039,9.41538462 Z" id="Shape"></path>
            </g>
        </g>
    </g>
</svg>